PathFileType        4      (X/Y/Z)      C:\Users\pc\Desktop\IMUTRC\Sujet_02\Sujet_02_velo_100.trc         
DataRate	CameraRate	NumFrames	NumMarkers	Units	OrigDataRate	OrigDataStartFrame	OrigNumFrames
60.0	60.0	4	64	mm	60.0	590	943
Frame#	Time	pHipOrigin			pRightASI			pLeftASI			pRightCSI			pLeftCSI			pRightIschialTub			pLeftIschialTub			pSacrum			pL5SpinalProcess			pL3SpinalProcess			pT12SpinalProcess			pIJ			pT4SpinalProcess			pT8SpinalProcess			pPX			pC7SpinalProcess			pTopOfHead			pRightAuricularis			pLeftAuricularis			pBackOfHead			pRightAcromion			pLeftAcromion			pRightArmLatEpicondyle			pRightArmMedEpicondyle			pLeftArmLatEpicondyle			pLeftArmMedEpicondyle			pRightUlnarStyloid			pRightRadialStyloid			pRightOlecranon			pLeftUlnarStyloid			pLeftRadialStyloid			pLeftOlecranon			pRightTopOfHand			pRightPinky			pRightBallHand			pLeftTopOfHand			pLeftPinky			pLeftBallHand			pRightGreaterTrochanter			pRightKneeLatEpicondyle			pRightKneeMedEpicondyle			pRightPatella			pLeftGreaterTrochanter			pLeftKneeLatEpicondyle			pLeftKneeMedEpicondyle			pLeftPatella			pRightTibialTub			pRightLatMalleolus			pRightMedMalleolus			pLeftTibialTub			pLeftLatMalleolus			pLeftMedMalleolus			pRightHeelFoot			pRightFirstMetatarsal			pRightFifthMetatarsal			pRightPivotFoot			pRightHeelCenter			pRightToe			pLeftHeelFoot			pLeftFirstMetatarsal			pLeftFifthMetatarsal			pLeftPivotFoot			pLeftHeelCenter			pLeftToe			
		X1	Y1	Z1	X2	Y2	Z2	X3	Y3	Z3	X4	Y4	Z4	X5	Y5	Z5	X6	Y6	Z6	X7	Y7	Z7	X8	Y8	Z8	X9	Y9	Z9	X10	Y10	Z10	X11	Y11	Z11	X12	Y12	Z12	X13	Y13	Z13	X14	Y14	Z14	X15	Y15	Z15	X16	Y16	Z16	X17	Y17	Z17	X18	Y18	Z18	X19	Y19	Z19	X20	Y20	Z20	X21	Y21	Z21	X22	Y22	Z22	X23	Y23	Z23	X24	Y24	Z24	X25	Y25	Z25	X26	Y26	Z26	X27	Y27	Z27	X28	Y28	Z28	X29	Y29	Z29	X30	Y30	Z30	X31	Y31	Z31	X32	Y32	Z32	X33	Y33	Z33	X34	Y34	Z34	X35	Y35	Z35	X36	Y36	Z36	X37	Y37	Z37	X38	Y38	Z38	X39	Y39	Z39	X40	Y40	Z40	X41	Y41	Z41	X42	Y42	Z42	X43	Y43	Z43	X44	Y44	Z44	X45	Y45	Z45	X46	Y46	Z46	X47	Y47	Z47	X48	Y48	Z48	X49	Y49	Z49	X50	Y50	Z50	X51	Y51	Z51	X52	Y52	Z52	X53	Y53	Z53	X54	Y54	Z54	X55	Y55	Z55	X56	Y56	Z56	X57	Y57	Z57	X58	Y58	Z58	X59	Y59	Z59	X60	Y60	Z60	X61	Y61	Z61	X62	Y62	Z62	X63	Y63	Z63	X64	Y64	Z64	
590	9.817	0.0	1250.00218	7.654055843321067E-14	80.19310000000002	1365.15562	131.72554000000008	31.44159999999999	1362.31793	-153.12171999999993	20.317860000000007	1429.23065	114.92642000000008	-19.636810000000008	1426.90374	-118.61541999999992	-40.068169999999995	1183.03271	67.65052000000007	-60.04551	1181.84088	-49.148779999999924	-72.36108	1263.11231	12.258820000000082	-43.81392	1377.86847	7.661760000000087	8.79684	1487.91406	8.45631000000009	67.99104	1582.86315	11.521020000000094	330.87458	1602.55672	-20.658379999999923	223.21265	1713.2266	14.30195000000009	143.87085	1662.71573	14.301950000000092	225.36929	1529.28758	-21.793449999999922	278.77461	1742.73857	14.926250000000088	507.71939	1739.95764	-56.242999999999924	446.53881	1706.92693	27.639090000000074	403.57619	1749.9463	-86.54952999999992	424.51834	1775.93954	-11.350759999999918	266.6293	1675.88261	208.28640000000007	245.11961	1746.59783	-190.69272999999993	320.31838	1386.26803	248.80861000000004	283.14465	1367.36902	199.26255000000006	329.79626	1457.43728	-212.54293999999993	289.16055	1436.7789	-166.51560999999995	418.21866	1128.66258	312.94039000000004	466.57289	1149.54798	287.40118	275.48289	1373.83895	236.83356000000006	433.6557	1196.82388	-259.6485799999999	474.80219	1213.96353	-221.62353999999993	286.77689	1446.08652	-209.02419999999995	603.69004	1043.58866	309.93244	517.87832	1060.50129	335.07437	459.98945	1103.97469	308.8541200000001	632.40746	1154.25854	-208.45665999999997	552.38462	1147.05081	-251.07875999999996	481.61265	1175.82498	-241.48736999999994	48.97852000000001	1237.74337	172.92879000000008	401.13577	964.30361	125.31236000000003	395.40364	961.01189	38.98985000000003	424.6886	1002.95294	75.93657000000003	-0.28377000000001074	1217.99305	-175.08543999999992	351.07893	939.61572	-165.43728999999996	365.04037	949.37737	-80.53362999999997	385.58524	984.05393	-129.11486999999997	452.49795	925.76779	80.30661000000003	345.40355	507.88965	107.20791000000001	347.90072	508.45719	38.819590000000005	381.61247	888.14003	-130.36344999999997	63.39397999999999	596.82284	-156.58369999999996	71.56653	589.84212	-88.98993999999996	291.77122	394.66584	45.00575	476.56156	373.95071	45.00574999999999	455.10863	363.45126	129.5689	490.18247	365.32413	91.82763	333.25824	387.57162	54.71065	571.39714	354.48416	111.12392	-57.66185000000001	575.88069	-97.84352999999997	24.460879999999992	409.53534	-110.44286999999997	5.107839999999989	428.88838	-193.98444999999998	25.08516999999999	397.33327	-158.39981999999998	-41.203250000000004	538.02591	-110.44286999999997	59.98874999999999	324.91544	-183.20122999999998	
591	9.833	0.0	1250.00218	7.654055843321067E-14	81.27142000000002	1365.21237	131.04450000000008	29.85248999999999	1362.43144	-153.3487399999999	21.112410000000008	1429.23065	114.81291000000009	-20.998900000000006	1426.9605	-118.33164999999991	-39.33037999999999	1182.91921	67.93428000000007	-60.38603	1181.78413	-48.58123999999992	-72.24757	1262.9988	12.939860000000081	-43.92743	1377.81171	8.059040000000087	8.56982	1487.97082	8.34281000000009	67.65052	1582.97666	10.783220000000094	330.30705	1602.72698	-22.92852999999992	222.81537	1713.39686	12.25882000000009	143.53033	1662.88599	12.939860000000092	224.85851	1529.40108	-23.155549999999923	278.32058	1742.96559	12.485830000000089	507.2086	1740.41167	-58.85367999999992	446.02802	1707.26745	24.914910000000074	403.12216	1750.34358	-89.21694999999991	423.9508	1776.28006	-14.018189999999919	266.79956	1675.93936	206.3567700000001	243.5305	1745.91678	-192.9061299999999	321.16969	1387.23284	248.80861000000004	284.10946	1367.93656	199.26255000000006	327.69637	1456.35896	-212.59968999999995	287.00391	1436.09786	-166.40210999999994	416.97008	1129.05986	314.64300000000003	465.55132	1149.37772	288.99029	276.33419	1374.91727	236.83356000000006	432.57737	1196.14284	-258.6837699999999	473.49685	1213.56625	-220.65872999999993	284.677	1445.06495	-209.13770999999994	602.44146	1043.4184	310.95401	516.68649	1060.38778	336.32295	458.79762	1104.03144	310.32971000000003	631.32914	1154.08828	-207.43509999999998	551.36305	1146.71029	-250.17069999999998	480.47757	1175.3142	-240.52254999999994	49.659560000000006	1235.30295	172.30450000000008	379.39907	935.86997	120.60180000000003	372.30485	932.91877	34.33604000000003	405.16529	972.58967	70.82873000000002	1.1350799999999894	1220.2632	-175.1989399999999	368.16182	962.82802	-166.62911999999997	380.81792	972.07888	-81.44168999999997	399.66018	1008.68508	-129.34187999999997	431.38554	898.2422	75.65280000000003	333.93929	478.15067	104.88100000000001	336.26619	478.37768	36.49269000000001	396.36846	911.06856	-131.04449999999997	71.90704999999998	626.84559	-159.08086999999998	79.4553	619.80812	-91.43034999999996	279.73942	365.04037	43.53016000000001	464.473	343.70094	42.39507999999999	443.53085	333.65552	127.12848999999999	478.32093	335.24463	89.16019999999999	321.28319	357.83263	52.95128	559.70586	324.17764	108.00245999999999	-49.546060000000004	609.7627	-98.86509999999996	27.866109999999992	441.09044	-110.38611999999998	8.172549999999987	459.98945	-193.92768999999998	27.63908999999999	428.32084	-158.17280999999997	-34.222530000000006	571.34039	-111.18066999999998	60.272519999999986	354.71118	-182.52017999999998	
592	9.85	0.0	1250.00218	7.654055843321067E-14	82.00922000000001	1365.21237	130.5904700000001	28.37688999999999	1362.71521	-153.4054899999999	21.623190000000008	1429.06039	114.92642000000008	-22.360990000000008	1427.074	-117.87761999999991	-38.64932999999999	1182.74894	68.16130000000007	-60.61305	1181.72738	-48.240719999999925	-72.19082	1262.82854	13.507400000000082	-44.15445	1377.69821	8.513070000000088	8.11579	1487.97082	8.39956000000009	67.08298	1583.09017	10.329190000000095	329.51249	1603.12425	-24.91490999999992	222.07757	1713.79414	10.442700000000091	142.84928	1663.16976	11.748030000000092	224.17746	1529.6281	-24.347379999999923	277.52602	1743.41962	10.272440000000088	506.3573	1740.97921	-61.35083999999992	445.17671	1707.77824	22.417750000000076	402.27085	1750.85436	-91.77087999999992	423.04274	1776.79085	-16.515349999999916	266.7428	1676.16638	204.65416000000008	241.60088	1745.29249	-194.8357499999999	321.33995	1388.36792	249.26264000000006	284.39323	1368.67435	199.83009000000007	324.74518	1455.05362	-212.54293999999993	284.27972	1435.36006	-165.89131999999995	415.32422	1129.57065	316.34562000000005	464.01897	1149.37772	290.5226400000001	276.56121	1376.1091	237.40110000000007	430.87476	1195.34829	-257.26491999999996	471.73749	1213.11222	-219.29663999999994	281.89607	1443.81637	-208.85393999999994	600.73885	1043.4184	311.97557	515.09738	1060.44453	337.57153	457.20852	1104.25846	311.8053100000001	629.68328	1153.80451	-206.18650999999997	549.66044	1146.25626	-248.86535999999998	478.77496	1174.74666	-239.16045999999994	49.94333000000001	1232.80579	171.8504700000001	356.98133	910.72804	116.91280000000003	348.75203	908.28763	30.703800000000037	384.79068	945.51811	66.85596000000002	2.5539199999999895	1222.5901	-175.2556999999999	383.5421	986.26733	-166.57236999999998	394.89286	995.00741	-81.15791999999998	412.0325	1033.31622	-128.32030999999998	409.93261	873.21378	71.56653000000003	318.55901	451.87366	102.38383000000002	320.48864	452.04392	33.995520000000006	410.27313	934.1106	-130.47695999999996	82.80377999999999	653.69013	-161.40776999999997	89.61423	646.65266	-93.64374999999995	262.37276	339.67142	41.37351000000001	446.70907	315.55106	39.160109999999996	426.05069	305.73266	124.06377999999998	460.6705	306.81098	85.86847999999999	303.80303	331.8394	50.56763	541.88517	294.66567	104.19995999999999	-38.819590000000005	638.36661	-99.60289999999996	36.60618999999999	468.67278	-110.27260999999997	16.17482999999999	487.06101	-193.81418999999997	35.69812999999999	455.5059	-158.00254999999999	-24.063610000000008	599.60377	-111.69145999999996	67.25323999999999	381.3287	-182.00939999999997	
593	9.867	0.0	1250.00218	7.654055843321067E-14	82.40650000000001	1365.09887	130.47696000000008	27.07155999999999	1363.28274	-153.23522999999992	21.67995000000001	1428.83337	115.32370000000009	-23.666330000000006	1427.35777	-117.19656999999991	-38.02503999999999	1182.40842	68.16130000000007	-60.6698	1181.67062	-48.07045999999992	-72.13406	1262.54477	14.018190000000082	-44.55172	1377.52795	9.137360000000086	7.3779900000000005	1487.97082	8.740080000000091	66.06141	1583.31718	10.158930000000094	328.26391	1603.91881	-26.560769999999923	220.71548	1714.41843	9.02385000000009	141.65746	1663.56704	10.953480000000093	223.09914	1530.13888	-25.028419999999922	276.10718	1744.15742	8.456310000000089	504.82495	1741.66025	-63.56423999999992	443.64436	1708.51604	20.204350000000076	400.7385	1751.76242	-93.87076999999991	421.62389	1777.5854	-18.671999999999915	266.28877	1677.01769	203.34882000000007	238.9902	1744.78171	-196.36810999999992	320.5454	1389.78676	250.51122000000007	283.42842	1369.63917	201.36244000000005	320.5454	1453.57802	-212.14565999999994	280.59073	1434.5655	-164.81299999999993	413.11082	1130.42195	318.21849000000003	461.80557	1149.71824	292.05499000000003	275.7099	1377.64145	238.87669000000005	428.20733	1194.49698	-255.16502999999994	469.07006	1212.7717	-217.42375999999993	277.9233	1442.45428	-208.05938999999995	598.41194	1043.81567	313.11065	512.88398	1060.84181	338.87687	454.99512	1104.76924	313.3944200000001	627.07261	1153.23698	-204.42713999999998	547.04976	1145.68872	-246.99248999999998	476.16428	1174.17912	-237.23082999999994	49.602810000000005	1230.25187	171.5099500000001	334.39332	888.70757	114.07511000000004	325.42622	886.9482	27.922860000000032	364.07555	921.62477	63.84801000000004	4.31328999999999	1225.08727	-175.1989399999999	397.56029	1009.99041	-164.64273999999997	407.37869	1018.16296	-79.00126999999998	422.98598	1057.94736	-125.42586999999996	387.62837	851.64734	68.16130000000003	299.37623	429.73968	100.51096000000001	300.56806	429.79644	32.06589000000001	423.04274	957.77693	-127.80952999999997	96.02740999999999	677.29971	-162.99687999999998	101.8163	670.4325	-95.11934999999995	239.04696	319.41032	38.876340000000006	422.4752	289.27406	35.527869999999986	401.93033	279.3989	120.43153999999998	436.43663	279.68267	82.06597999999998	280.25021	310.1027	47.78669000000001	517.08376	264.75642	99.82990999999998	-25.709470000000007	660.55734	-99.65964999999996	51.589189999999995	491.71482	-110.27260999999997	30.022749999999988	509.422	-193.64392999999998	50.28385999999999	478.26417	-157.88903999999997	-10.612960000000006	621.90801	-111.74820999999996	82.46324999999999	404.25723	-181.89588999999998	
